<?xml version="1.0" encoding="UTF-8" standalone="no"?>
<!-- Generator: Adobe Illustrator 19.0.0, SVG Export Plug-In . SVG Version: 6.00 Build 0)  -->

<svg
   xmlns:dc="http://purl.org/dc/elements/1.1/"
   xmlns:cc="http://creativecommons.org/ns#"
   xmlns:rdf="http://www.w3.org/1999/02/22-rdf-syntax-ns#"
   xmlns:svg="http://www.w3.org/2000/svg"
   xmlns="http://www.w3.org/2000/svg"
   xmlns:sodipodi="http://sodipodi.sourceforge.net/DTD/sodipodi-0.dtd"
   xmlns:inkscape="http://www.inkscape.org/namespaces/inkscape"
   version="1.1"
   id="art"
   x="0px"
   y="0px"
   viewBox="44 -127 568 895"
   style="enable-background:new 44 -127 568 895;"
   xml:space="preserve"
   inkscape:version="0.91 r13725"
   sodipodi:docname="path-refactor.svg"><metadata
     id="metadata193"><rdf:RDF><cc:Work
         rdf:about=""><dc:format>image/svg+xml</dc:format><dc:type
           rdf:resource="http://purl.org/dc/dcmitype/StillImage" /></cc:Work></rdf:RDF></metadata><defs
     id="defs191" /><sodipodi:namedview
     pagecolor="#ffffff"
     bordercolor="#666666"
     borderopacity="1"
     objecttolerance="10"
     gridtolerance="10"
     guidetolerance="10"
     inkscape:pageopacity="0"
     inkscape:pageshadow="2"
     inkscape:window-width="1149"
     inkscape:window-height="694"
     id="namedview189"
     showgrid="false"
     inkscape:zoom="0.5273743"
     inkscape:cx="474.82239"
     inkscape:cy="487.07072"
     inkscape:window-x="0"
     inkscape:window-y="0"
     inkscape:window-maximized="0"
     inkscape:current-layer="art" /><style
     type="text/css"
     id="style3">
	.st0{fill:none;stroke:#000000;stroke-width:2;stroke-miterlimit:10;}
	.st1{fill:none;stroke:#003D2C;stroke-width:2;}
	.st2{fill:none;stroke:#003D2C;}
	.st3{fill:#FFFFFF;stroke:#003D2C;}
	.st4{fill:#A1E0CF;enable-background:new    ;}
	.st5{fill:#A1E0CF;stroke:#003D2C;}
	.st6{fill:#FFFFFF;}
	.st7{font-family:'Arial-BoldMT';}
	.st8{font-size:50px;}
	.st9{letter-spacing:2;}
</style><path
     id="pathline"
     class="st0"
     d="M177.1-31.5c12.1,17.9,40,15.6,58.4,4.2s32.1-29.3,51-39.8s47.6-9.4,56.8,10.1  c6.5,13.8,0.2,29.9-4.9,44.2s-8.5,32.2,1.9,43.4c10.2,11,27.9,9.3,42.5,5.5c23.9-6.2,47-15.5,71.2-20.9C478,10,504,8.9,526.7,18.8  c22.7,9.9,40.8,32.9,39.1,57.6c-1.2,17.7-12.2,33.7-26.4,44.3s-31.6,16.2-48.9,20c-26.6,5.8-56.7,1-83.8-1.4  c-28.5-2.6-71.5-9.5-91.1,11.2c-24.9,26.4-6.1,74.5-24.2,105.9c-14.3,24.8-30.6,29.8-57.8,38.7c-22.9,7.5-48,17.6-66.5,33  c-12,10-31.6,34.1-36.6,48.9c-5,14.8,1.8,46,11.5,58.2c49.8,61.2,125.6,91.3,212.1,74.8c34.9-6.7,47.6-23.1,82.7-28.7  c30.2-4.9,67.4-5,98-4c16.7,0.6,51.3,12.5,61.4,25.8c13.7,18.2,7.1,47.3-4.5,66.9c-14.6,24.5-34,30.5-68.9,29.2  c-31.7-5.2-85.7-15.8-137.2,4.5s-54.9,91.4-179,66.4c-14.3-2.9-47.3-11.7-61.7-9.2s-27.1,21-27,35.6" /><g
     id="treasure"
     transform="translate(0.000000, 700.000000)"><g
       id="box"
       transform="translate(57.500000, 57.500000) scale(-1, 1) translate(-57.500000, -57.500000) "><polygon
         id="Path-73"
         class="st1"
         points="-42.7,-19.9 -42.7,18.9 15.6,43.7 15.6,0.9   " /><polygon
         id="Path-74"
         class="st1"
         points="16,43.7 55,25.4 55,-14 16,0.9   " /><polygon
         id="Path-75"
         class="st1"
         points="-40.7,-21.2 -2.8,-33.2 53.2,-15.2 16.1,0.7   " /><polygon
         id="Path-76"
         class="st1"
         points="-14.3,-66.5 -2.4,-34.6 54.6,-16.8 44.9,-52.7   " /><path
         id="Path-77"
         class="st1"
         d="M47.5-53.6l9.3,35.7c0,0,13.5-3.9,13.1-19l-2.6-10.2c0,0-2.7-8.9-19.1-7.2    C47.2-54.3,47.5-53.6,47.5-53.6z" /><path
         id="Path-78"
         class="st1"
         d="M-11.2-68.9l58,14.1c0,0,8.6,0,13,1.1c1.1,0.3-2-2.3-7.8-3.9C46.3-59.3-0.4-70.5-0.4-70.5    s-8.3-0.5-10,0.5C-12.1-68.9-11.2-68.9-11.2-68.9z" /><path
         id="Path-79"
         class="st1"
         d="M8.3-61.2c0,0-8,8.3-8,8.8C0.3-52,1.2-50,5.6-50l10.5-9.6L8.3-61.2z" /><path
         id="Path-80"
         class="st1"
         d="M8.4-58.7l-5,4.6c0,0-0.1,1.6,1.4,1.6l5.7-5.3L8.4-58.7z" /></g><g
       id="coin"
       transform="translate(68.000000, 121.000000)"><ellipse
         id="Oval-4"
         class="st2"
         cx="48"
         cy="-69"
         rx="5"
         ry="2" /><path
         id="Oval-4_1_"
         class="st2"
         d="M43-68.9v1.9c0,1.1,2.2,2,5,2s5-0.9,5-2v-1.9" /></g><g
       id="coin_1_"
       transform="translate(43.000000, 58.000000)"><path
         id="Oval-4_2_"
         class="st3"
         d="M43-68.2v2.5c0,1.5,2.9,2.7,6.5,2.7s6.5-1.2,6.5-2.7v-2.5" /><ellipse
         id="Oval-4_3_"
         class="st3"
         cx="49.5"
         cy="-68.3"
         rx="6.5"
         ry="2.7" /></g><g
       id="coin_2_"
       transform="translate(38.000000, 57.000000)"><path
         id="Oval-4_4_"
         class="st3"
         d="M43-68.2v2.5c0,1.5,2.9,2.7,6.5,2.7s6.5-1.2,6.5-2.7v-2.5" /><ellipse
         id="Oval-4_5_"
         class="st3"
         cx="49.5"
         cy="-68.3"
         rx="6.5"
         ry="2.7" /></g><g
       id="coin_3_"
       transform="translate(28.000000, 131.000000)"><ellipse
         id="Oval-4_6_"
         class="st2"
         cx="48"
         cy="-69"
         rx="5"
         ry="2" /><path
         id="Oval-4_7_"
         class="st2"
         d="M43-68.9v1.9c0,1.1,2.2,2,5,2s5-0.9,5-2v-1.9" /></g><g
       id="coin_4_"
       transform="translate(41.000000, 130.000000)"><ellipse
         id="Oval-4_8_"
         class="st2"
         cx="49.5"
         cy="-68.3"
         rx="6.5"
         ry="2.7" /><path
         id="Oval-4_9_"
         class="st2"
         d="M43-68.2v2.5c0,1.5,2.9,2.7,6.5,2.7s6.5-1.2,6.5-2.7v-2.5" /></g><g
       id="coin_5_"
       transform="translate(35.000000, 113.000000)"><ellipse
         id="Oval-4_10_"
         class="st2"
         cx="49.5"
         cy="-68.3"
         rx="6.5"
         ry="2.7" /><path
         id="Oval-4_11_"
         class="st2"
         d="M43-68.2v2.5c0,1.5,2.9,2.7,6.5,2.7s6.5-1.2,6.5-2.7v-2.5" /></g><g
       id="coin_6_"
       transform="translate(62.000000, 113.000000)"><ellipse
         id="Oval-4_12_"
         class="st2"
         cx="48"
         cy="-69"
         rx="5"
         ry="2" /><path
         id="Oval-4_13_"
         class="st2"
         d="M43-68.9v1.9c0,1.1,2.2,2,5,2s5-0.9,5-2v-1.9" /></g><g
       id="coin_7_"
       transform="translate(71.000000, 120.000000)"><ellipse
         id="Oval-4_14_"
         class="st2"
         cx="49.5"
         cy="-68.3"
         rx="6.5"
         ry="2.7" /><path
         id="Oval-4_15_"
         class="st2"
         d="M43-68.2v2.5c0,1.5,2.9,2.7,6.5,2.7s6.5-1.2,6.5-2.7v-2.5" /></g><g
       id="coin_8_"
       transform="translate(65.000000, 129.000000)"><ellipse
         id="Oval-4_16_"
         class="st2"
         cx="49.5"
         cy="-68.3"
         rx="6.5"
         ry="2.7" /><path
         id="Oval-4_17_"
         class="st2"
         d="M43-68.2v2.5c0,1.5,2.9,2.7,6.5,2.7s6.5-1.2,6.5-2.7v-2.5" /></g><g
       id="coin_9_"
       transform="translate(49.000000, 63.000000)"><path
         id="Oval-4_18_"
         class="st3"
         d="M43-68.2v2.5c0,1.5,2.9,2.7,6.5,2.7s6.5-1.2,6.5-2.7v-2.5" /><ellipse
         id="Oval-4_19_"
         class="st3"
         cx="49.5"
         cy="-68.3"
         rx="6.5"
         ry="2.7" /></g><g
       id="coin_10_"
       transform="translate(43.000000, 49.000000)"><path
         id="Oval-4_20_"
         class="st3"
         d="M43-68.2v2.5c0,1.5,2.9,2.7,6.5,2.7s6.5-1.2,6.5-2.7v-2.5" /><ellipse
         id="Oval-4_21_"
         class="st3"
         cx="49.5"
         cy="-68.3"
         rx="6.5"
         ry="2.7" /></g><g
       id="coin_11_"
       transform="translate(38.000000, 48.000000)"><path
         id="Oval-4_22_"
         class="st3"
         d="M43-68.2v2.5c0,1.5,2.9,2.7,6.5,2.7s6.5-1.2,6.5-2.7v-2.5" /><ellipse
         id="Oval-4_23_"
         class="st3"
         cx="49.5"
         cy="-68.3"
         rx="6.5"
         ry="2.7" /></g><g
       id="coin_12_"
       transform="translate(49.000000, 54.000000)"><path
         id="Oval-4_24_"
         class="st3"
         d="M43-68.2v2.5c0,1.5,2.9,2.7,6.5,2.7s6.5-1.2,6.5-2.7v-2.5" /><ellipse
         id="Oval-4_25_"
         class="st3"
         cx="49.5"
         cy="-68.3"
         rx="6.5"
         ry="2.7" /></g><g
       id="coin_13_"
       transform="translate(53.000000, 54.000000)"><path
         id="Oval-4_26_"
         class="st3"
         d="M43-68.2v2.5c0,1.5,2.9,2.7,6.5,2.7s6.5-1.2,6.5-2.7v-2.5" /><ellipse
         id="Oval-4_27_"
         class="st3"
         cx="49.5"
         cy="-68.3"
         rx="6.5"
         ry="2.7" /></g><g
       id="coin_14_"
       transform="translate(48.000000, 53.000000)"><path
         id="Oval-4_28_"
         class="st3"
         d="M43-68.2v2.5c0,1.5,2.9,2.7,6.5,2.7s6.5-1.2,6.5-2.7v-2.5" /><ellipse
         id="Oval-4_29_"
         class="st3"
         cx="49.5"
         cy="-68.3"
         rx="6.5"
         ry="2.7" /></g><g
       id="coin_15_"
       transform="translate(59.000000, 59.000000)"><path
         id="Oval-4_30_"
         class="st3"
         d="M43-68.2v2.5c0,1.5,2.9,2.7,6.5,2.7s6.5-1.2,6.5-2.7v-2.5" /><ellipse
         id="Oval-4_31_"
         class="st3"
         cx="49.5"
         cy="-68.3"
         rx="6.5"
         ry="2.7" /></g><g
       id="coin_16_"
       transform="translate(54.000000, 46.000000)"><path
         id="Oval-4_32_"
         class="st3"
         d="M43-68.2v2.5c0,1.5,2.9,2.7,6.5,2.7s6.5-1.2,6.5-2.7v-2.5" /><ellipse
         id="Oval-4_33_"
         class="st3"
         cx="49.5"
         cy="-68.3"
         rx="6.5"
         ry="2.7" /></g><g
       id="coin_17_"
       transform="translate(49.000000, 45.000000)"><path
         id="Oval-4_34_"
         class="st3"
         d="M43-68.2v2.5c0,1.5,2.9,2.7,6.5,2.7s6.5-1.2,6.5-2.7v-2.5" /><ellipse
         id="Oval-4_35_"
         class="st3"
         cx="49.5"
         cy="-68.3"
         rx="6.5"
         ry="2.7" /></g><g
       id="coin_18_"
       transform="translate(60.000000, 51.000000)"><path
         id="Oval-4_36_"
         class="st3"
         d="M43-68.2v2.5c0,1.5,2.9,2.7,6.5,2.7s6.5-1.2,6.5-2.7v-2.5" /><ellipse
         id="Oval-4_37_"
         class="st3"
         cx="49.5"
         cy="-68.3"
         rx="6.5"
         ry="2.7" /></g><g
       id="coin_19_"
       transform="translate(64.000000, 51.000000)"><path
         id="Oval-4_38_"
         class="st3"
         d="M43-68.2v2.5c0,1.5,2.9,2.7,6.5,2.7s6.5-1.2,6.5-2.7v-2.5" /><ellipse
         id="Oval-4_39_"
         class="st3"
         cx="49.5"
         cy="-68.3"
         rx="6.5"
         ry="2.7" /></g><g
       id="coin_20_"
       transform="translate(59.000000, 50.000000)"><path
         id="Oval-4_40_"
         class="st3"
         d="M43-68.2v2.5c0,1.5,2.9,2.7,6.5,2.7s6.5-1.2,6.5-2.7v-2.5" /><ellipse
         id="Oval-4_41_"
         class="st3"
         cx="49.5"
         cy="-68.3"
         rx="6.5"
         ry="2.7" /></g><g
       id="coin_21_"
       transform="translate(70.000000, 56.000000)"><path
         id="Oval-4_42_"
         class="st3"
         d="M43-68.2v2.5c0,1.5,2.9,2.7,6.5,2.7s6.5-1.2,6.5-2.7v-2.5" /><ellipse
         id="Oval-4_43_"
         class="st3"
         cx="49.5"
         cy="-68.3"
         rx="6.5"
         ry="2.7" /></g><g
       id="coin_22_"
       transform="translate(66.000000, 42.000000)"><path
         id="Oval-4_44_"
         class="st3"
         d="M43-68.2v2.5c0,1.5,2.9,2.7,6.5,2.7s6.5-1.2,6.5-2.7v-2.5" /><ellipse
         id="Oval-4_45_"
         class="st3"
         cx="49.5"
         cy="-68.3"
         rx="6.5"
         ry="2.7" /></g><g
       id="coin_23_"
       transform="translate(61.000000, 41.000000)"><path
         id="Oval-4_46_"
         class="st3"
         d="M43-68.2v2.5c0,1.5,2.9,2.7,6.5,2.7s6.5-1.2,6.5-2.7v-2.5" /><ellipse
         id="Oval-4_47_"
         class="st3"
         cx="49.5"
         cy="-68.3"
         rx="6.5"
         ry="2.7" /></g><g
       id="coin_24_"
       transform="translate(72.000000, 47.000000)"><path
         id="Oval-4_48_"
         class="st3"
         d="M43-68.2v2.5c0,1.5,2.9,2.7,6.5,2.7s6.5-1.2,6.5-2.7v-2.5" /><ellipse
         id="Oval-4_49_"
         class="st3"
         cx="49.5"
         cy="-68.3"
         rx="6.5"
         ry="2.7" /></g><g
       id="coin_25_"
       transform="translate(76.000000, 47.000000)"><path
         id="Oval-4_50_"
         class="st3"
         d="M43-68.2v2.5c0,1.5,2.9,2.7,6.5,2.7s6.5-1.2,6.5-2.7v-2.5" /><ellipse
         id="Oval-4_51_"
         class="st3"
         cx="49.5"
         cy="-68.3"
         rx="6.5"
         ry="2.7" /></g><g
       id="coin_26_"
       transform="translate(71.000000, 46.000000)"><path
         id="Oval-4_52_"
         class="st3"
         d="M43-68.2v2.5c0,1.5,2.9,2.7,6.5,2.7s6.5-1.2,6.5-2.7v-2.5" /><ellipse
         id="Oval-4_53_"
         class="st3"
         cx="49.5"
         cy="-68.3"
         rx="6.5"
         ry="2.7" /></g><g
       id="coin_27_"
       transform="translate(82.000000, 52.000000)"><path
         id="Oval-4_54_"
         class="st3"
         d="M43-68.2v2.5c0,1.5,2.9,2.7,6.5,2.7s6.5-1.2,6.5-2.7v-2.5" /><ellipse
         id="Oval-4_55_"
         class="st3"
         cx="49.5"
         cy="-68.3"
         rx="6.5"
         ry="2.7" /></g><g
       id="coin_28_"
       transform="translate(83.000000, 43.000000)"><path
         id="Oval-4_56_"
         class="st3"
         d="M43-68.2v2.5c0,1.5,2.9,2.7,6.5,2.7s6.5-1.2,6.5-2.7v-2.5" /><ellipse
         id="Oval-4_57_"
         class="st3"
         cx="49.5"
         cy="-68.3"
         rx="6.5"
         ry="2.7" /></g><g
       id="coin_29_"
       transform="translate(78.000000, 42.000000)"><path
         id="Oval-4_58_"
         class="st3"
         d="M43-68.2v2.5c0,1.5,2.9,2.7,6.5,2.7s6.5-1.2,6.5-2.7v-2.5" /><ellipse
         id="Oval-4_59_"
         class="st3"
         cx="49.5"
         cy="-68.3"
         rx="6.5"
         ry="2.7" /></g><g
       id="coin_30_"
       transform="translate(89.000000, 48.000000)"><path
         id="Oval-4_60_"
         class="st3"
         d="M43-68.2v2.5c0,1.5,2.9,2.7,6.5,2.7s6.5-1.2,6.5-2.7v-2.5" /><ellipse
         id="Oval-4_61_"
         class="st3"
         cx="49.5"
         cy="-68.3"
         rx="6.5"
         ry="2.7" /></g><g
       id="coin_31_"
       transform="translate(63.000000, 59.503935)"><path
         id="Oval-4_62_"
         class="st3"
         d="M43-68.9v1.9c0,1.1,2.2,2,5,2s5-0.9,5-2v-1.9" /><ellipse
         id="Oval-4_63_"
         class="st3"
         cx="48"
         cy="-69"
         rx="5"
         ry="2" /></g><g
       id="coin_32_"
       transform="translate(54.000000, 58.000000)"><path
         id="Oval-4_64_"
         class="st3"
         d="M43-68.9v1.9c0,1.1,2.2,2,5,2s5-0.9,5-2v-1.9" /><ellipse
         id="Oval-4_65_"
         class="st3"
         cx="48"
         cy="-69"
         rx="5"
         ry="2" /></g><g
       id="coin_33_"
       transform="translate(59.000000, 54.000000)"><path
         id="Oval-4_66_"
         class="st3"
         d="M43-68.9v1.9c0,1.1,2.2,2,5,2s5-0.9,5-2v-1.9" /><ellipse
         id="Oval-4_67_"
         class="st3"
         cx="48"
         cy="-69"
         rx="5"
         ry="2" /></g><g
       id="coin_34_"
       transform="translate(66.000000, 52.000000)"><path
         id="Oval-4_68_"
         class="st3"
         d="M43-68.9v1.9c0,1.1,2.2,2,5,2s5-0.9,5-2v-1.9" /><ellipse
         id="Oval-4_69_"
         class="st3"
         cx="48"
         cy="-69"
         rx="5"
         ry="2" /></g><g
       id="coin_35_"
       transform="translate(75.000000, 54.000000)"><path
         id="Oval-4_70_"
         class="st3"
         d="M43-68.9v1.9c0,1.1,2.2,2,5,2s5-0.9,5-2v-1.9" /><ellipse
         id="Oval-4_71_"
         class="st3"
         cx="48"
         cy="-69"
         rx="5"
         ry="2" /></g><g
       id="coin_36_"
       transform="translate(67.000000, 47.000000)"><path
         id="Oval-4_72_"
         class="st3"
         d="M43-68.9v1.9c0,1.1,2.2,2,5,2s5-0.9,5-2v-1.9" /><ellipse
         id="Oval-4_73_"
         class="st3"
         cx="48"
         cy="-69"
         rx="5"
         ry="2" /></g><g
       id="coin_37_"
       transform="translate(46.000000, 56.000000)"><path
         id="Oval-4_74_"
         class="st3"
         d="M43-68.9v1.9c0,1.1,2.2,2,5,2s5-0.9,5-2v-1.9" /><ellipse
         id="Oval-4_75_"
         class="st3"
         cx="48"
         cy="-69"
         rx="5"
         ry="2" /></g><g
       id="coin_38_"
       transform="translate(49.000000, 49.000000)"><path
         id="Oval-4_76_"
         class="st3"
         d="M43-68.9v1.9c0,1.1,2.2,2,5,2s5-0.9,5-2v-1.9" /><ellipse
         id="Oval-4_77_"
         class="st3"
         cx="48"
         cy="-69"
         rx="5"
         ry="2" /></g><g
       id="coin_39_"
       transform="translate(58.000000, 51.000000)"><path
         id="Oval-4_78_"
         class="st3"
         d="M43-68.9v1.9c0,1.1,2.2,2,5,2s5-0.9,5-2v-1.9" /><ellipse
         id="Oval-4_79_"
         class="st3"
         cx="48"
         cy="-69"
         rx="5"
         ry="2" /></g><g
       id="coin_40_"
       transform="translate(50.000000, 44.000000)"><path
         id="Oval-4_80_"
         class="st3"
         d="M43-68.9v1.9c0,1.1,2.2,2,5,2s5-0.9,5-2v-1.9" /><ellipse
         id="Oval-4_81_"
         class="st3"
         cx="48"
         cy="-69"
         rx="5"
         ry="2" /></g><g
       id="coin_41_"
       transform="translate(67.000000, 49.000000)"><path
         id="Oval-4_82_"
         class="st3"
         d="M43-68.9v1.9c0,1.1,2.2,2,5,2s5-0.9,5-2v-1.9" /><ellipse
         id="Oval-4_83_"
         class="st3"
         cx="48"
         cy="-69"
         rx="5"
         ry="2" /></g><g
       id="coin_42_"
       transform="translate(70.000000, 42.000000)"><path
         id="Oval-4_84_"
         class="st3"
         d="M43-68.9v1.9c0,1.1,2.2,2,5,2s5-0.9,5-2v-1.9" /><ellipse
         id="Oval-4_85_"
         class="st3"
         cx="48"
         cy="-69"
         rx="5"
         ry="2" /></g><g
       id="coin_43_"
       transform="translate(79.000000, 44.000000)"><path
         id="Oval-4_86_"
         class="st3"
         d="M43-68.9v1.9c0,1.1,2.2,2,5,2s5-0.9,5-2v-1.9" /><ellipse
         id="Oval-4_87_"
         class="st3"
         cx="48"
         cy="-69"
         rx="5"
         ry="2" /></g><g
       id="coin_44_"
       transform="translate(29.000000, 53.000000)"><ellipse
         id="Oval-4_88_"
         class="st2"
         cx="49.5"
         cy="-68.3"
         rx="6.5"
         ry="2.7" /><path
         id="Oval-4_89_"
         class="st2"
         d="M43-68.2v2.5c0,1.5,2.9,2.7,6.5,2.7s6.5-1.2,6.5-2.7v-2.5" /></g><g
       id="coin_45_"
       transform="translate(71.000000, 37.000000)"><path
         id="Oval-4_90_"
         class="st3"
         d="M43-68.9v1.9c0,1.1,2.2,2,5,2s5-0.9,5-2v-1.9" /><ellipse
         id="Oval-4_91_"
         class="st3"
         cx="48"
         cy="-69"
         rx="5"
         ry="2" /></g></g><g
     id="bridge"
     transform="translate(235.000000, 248.000000)"><path
       id="Path-21"
       class="st4"
       d="M123.1-104.9c0,0-65.7,18.4-43,101.8L48.6-21.5c-2.5-0.2-22.7-81.5,43-101.8L123.1-104.9z" /><path
       id="Path-13"
       class="st2"
       d="M123.1-104.9c0,0-66,19.6-43,101.8" /><path
       id="Path-13_1_"
       class="st2"
       d="M91.6-123.3c0,0-66,19.6-43,101.8" /><path
       id="Path-14"
       class="st2"
       d="M46.5-34.1c0,0,19.5-3.5,28.2,5.7" /><path
       id="Path-15"
       class="st2"
       d="M44-53.9c0,0,17.9-9.9,31.9,2.5" /><path
       id="Path-16"
       class="st2"
       d="M46.7-76.6c0,0,19.7-9.6,37,3.7" /><path
       id="Path-17"
       class="st2"
       d="M58.4-99.7c0,0,26.1-3.1,36.7,12.1" /><path
       id="Path-18"
       class="st2"
       d="M77.5-117.2c0,0,16-1.7,32.6,17.2" /></g><g
     id="goalnums"><g
       id="ONE"
       transform="translate(67.000000, 0.000000)"><ellipse
         id="Oval-3"
         class="st5"
         cx="94.1"
         cy="-74.8"
         rx="51.1"
         ry="51.2" /></g><g
       id="TWO"
       transform="translate(340.000000, 102.000000)"><ellipse
         id="Oval-3_1_"
         class="st5"
         cx="94.6"
         cy="-74.5"
         rx="51.1"
         ry="51.2" /></g><g
       id="THREE"
       transform="translate(97.000000, 391.000000)"><ellipse
         id="Oval-3_2_"
         class="st5"
         cx="94.8"
         cy="-74.5"
         rx="51.1"
         ry="51.2" /></g><g
       id="FOUR"
       transform="translate(67.000000, 552.000000)"><ellipse
         id="Oval-3_3_"
         class="st5"
         cx="291.1"
         cy="-55.6"
         rx="51.1"
         ry="51.2" /></g><g
       id="FIVE"
       transform="translate(194.000000, 759.000000)"><ellipse
         id="Oval-3_4_"
         class="st5"
         cx="94.9"
         cy="-74.1"
         rx="51.1"
         ry="51.2" /></g></g><g
     id="river"
     transform="translate(74.000000, 227.000000)"><path
       id="Path-19"
       class="st2"
       d="M53.9-97.9c15-4.4,31.3-11.6,47.3-9.1c19.7,3,17.8,24.5,34.5,33c11.7,5.9,24.3,4.2,36.8,3.5   c13-0.7,26.7-0.8,39.6,1.9c0.6,0.1,1.2,0.3,1.8,0.5 M244.8-49c8.4,1.4,17.4,1,25.7,3.2c27.6,7,29.5,40.6,54.1,50.9   c27.7,11.6,33.4,2.6,66.3,7.4c27.1,3.9,44.1,36.4,89.2,43.8" /><path
       id="Path-19_1_"
       class="st2"
       d="M46.2-80c15-4.4,47.3-17.5,61.4-2.4c7.6,8.1,7.9,18.8,18.3,25.4c10.7,6.8,23.6,5.1,35.6,4.7   c14.3-0.5,28.8-1.3,42.9,1.6c0.6,0.1,1.2,0.3,1.8,0.5 M237.1-31.1c8.4,1.4,17.4,1,25.7,3.2c27.6,7,29.5,40.6,54.1,50.9   c27.7,11.6,33.4,2.6,66.3,7.4c27.1,3.9,44.1,36.4,89.2,43.8" /><path
       id="Path-19_2_"
       class="st2"
       d="M43.7-59.6c14.4-4.2,29.5-10.6,44.8-9.4c19.3,1.6,19.3,18.5,32.2,29.8   c10.4,9.1,22.7,7.8,35.7,7.4c15.2-0.4,30.6-1.6,45.6,1.5c0.6,0.1,1.2,0.3,1.8,0.5 M236.2-10.6c8.4,1.4,15.7,1,24,3.1   c27.6,7,29.5,40.6,54.1,50.9c27.7,11.6,33.4,2.6,66.3,7.4c27.1,3.9,44.1,36.4,89.2,43.8" /><path
       id="Path-19_3_"
       class="st2"
       d="M66.7-116.3c14.7-4.3,30.2-11,45.9-9.3c20.1,2.2,19.4,23.7,35.6,32.9   c10.8,6.2,21.5,4.8,33.2,4.1c14.4-0.9,29.4-1.4,43.6,1.6c0.6,0.1,1.2,0.3,1.8,0.5 M257.5-67.4c8.4,1.4,17.4,1,25.7,3.2   c27.6,7,29.5,40.6,54.1,50.9c27.7,11.6,33.4,2.6,66.3,7.4c27.1,3.9,44.1,36.4,89.2,43.8" /></g><path
     style="fill:#ffffff"
     d="m 430.2405,48.696886 c -1.1992,-1.199197 -0.71758,-10.135377 0.90939,-16.873453 1.72451,-7.142052 2.10162,-20.331111 0.6077,-21.254394 -1.82972,-1.1308349 -4.31397,0.689113 -8.06216,5.906318 -4.5273,6.301671 -6.41823,6.772884 -5.54331,1.38136 1.14679,-7.066796 5.72989,-11.7060632 12.67828,-12.8336232 5.56955,-0.903817 7.22488,1.4078383 7.22653,10.0918182 7.4e-4,3.914512 -0.55238,11.080039 -1.22917,15.923399 -0.67678,4.843349 -0.92714,9.109473 -0.55635,9.480271 0.3708,0.370798 3.50159,-0.594694 6.95732,-2.145523 7.43507,-3.336672 11.88876,-3.695349 11.85478,-0.954743 -0.0163,1.315396 -3.23521,3.361142 -10.92334,6.942257 -10.99565,5.121758 -12.62625,5.629735 -13.91967,4.336313 z"
     id="path4572"
     inkscape:connector-curvature="0"
     sodipodi:nodetypes="sssssssscssss" /><path
     inkscape:connector-curvature="0"
     id="path4574"
     d="m 160.82132,-60.98443 c -2.93198,-9.8764 -5.3044,-22.88089 -5.35389,-29.34741 -0.0363,-4.743744 2.23443,-9.74349 3.74098,-8.23694 1.09857,1.09858 2.51582,9.15431 2.56958,14.60555 0.0255,2.58904 1.52466,10.20926 3.33143,16.93382 2.65809,9.89316 3.01401,12.39828 1.86496,13.12668 -2.88954,1.83173 -3.82739,0.75234 -6.15306,-7.0817 z m -35.14631,-6.46111 c 0.0511,-1.24147 0.30366,-1.49399 0.64386,-0.64386 0.30784,0.7693 0.26999,1.68846 -0.0842,2.04258 -0.35413,0.35412 -0.60599,-0.2753 -0.55972,-1.39872 z"
     style="fill:#ffffff"
     sodipodi:nodetypes="ssscsssccscc" /><path
     inkscape:connector-curvature="0"
     id="path4576"
     d="m 193.10881,342.09249 c -0.41659,-1.0856 0.9044,-3.37279 3.69905,-6.40464 4.70838,-5.10798 6.41747,-9.51282 4.7338,-12.20034 -1.83487,-2.92883 -5.21489,-2.54362 -9.32189,1.06239 -5.83208,5.12063 -6.78894,3.07421 -3.36699,-7.20098 3.03035,-9.0993 3.36879,-12.19113 1.67995,-15.34677 -2.46123,-4.59885 -10.04763,-0.81525 -11.35864,5.66494 -0.94857,4.68873 -3.52355,3.66403 -3.52355,-1.40218 0,-5.44014 1.35133,-7.99736 5.30713,-10.04298 9.37578,-4.8484 15.98317,0.93025 16.00076,13.99386 0.005,3.8561 0.35409,4.50104 2.76195,5.10537 4.59104,1.15228 7.90224,5.29873 7.89092,9.8814 -0.01,3.98014 -4.55332,13.49937 -7.61558,15.95575 -2.81657,2.2593 -6.2022,2.71854 -6.88691,0.93418 z"
     style="fill:#ffffff"
     sodipodi:nodetypes="ssssssssscscss" /><path
     style="fill:#ffffff"
     d="m 362.99755,519.07023 c -0.2888,-1.02572 -0.84775,-3.54343 -1.24211,-5.59488 -1.49654,-7.785 -2.65127,-8.52554 -13.29402,-8.52554 l -9.54002,0 0.62675,-3.46349 c 0.89478,-4.94464 5.06016,-13.92707 9.00676,-19.4226 3.59207,-5.00188 8.54107,-8.01896 13.15366,-8.01896 3.0969,0 4.77435,2.65084 2.87765,4.54754 -1.43037,1.43037 -1.62758,18.71519 -0.23853,20.90854 0.91429,1.44373 3.80456,1.29991 7.82329,-0.38931 1.57569,-0.66231 1.86496,-0.18963 1.86496,3.04744 0,3.62555 -0.22192,3.86684 -4.13151,4.49201 l -4.13151,0.66065 1.50931,5.77983 c 0.83014,3.1789 1.22233,6.24421 0.87155,6.81178 -1.06549,1.72402 -4.59691,1.15351 -5.15623,-0.83301 z m -4.94698,-24.64413 c 0,-2.85737 -0.30576,-6.724 -0.67946,-8.59248 l -0.67943,-3.39725 -3.67672,3.53046 c -3.52744,3.38714 -7.7527,10.22496 -7.7527,12.54638 0,0.64395 2.67853,1.10815 6.39416,1.10815 l 6.39415,0 z"
     id="path4578"
     inkscape:connector-curvature="0"
     sodipodi:nodetypes="ssscsssscssscssssscssscs" /><path
     inkscape:connector-curvature="0"
     id="path4580"
     d="m 287.86773,711.8315 c 0.005,-1.27263 1.45389,-3.74262 5.62552,-9.59238 2.5696,-3.6033 2.82781,-8.23829 0.54013,-9.69585 -1.40263,-0.89367 -2.94061,-0.61676 -6.68908,1.20439 -2.67721,1.30069 -5.5573,2.36489 -6.40019,2.36489 -2.88288,0 -4.13881,-4.61178 -4.20586,-15.44397 l -0.0659,-10.64836 10.12407,-1.34896 c 11.19067,-1.49109 12.78829,-1.27971 12.78829,1.69193 0,1.72124 -1.40074,2.25155 -9.3248,3.53029 l -9.3248,1.50478 0.24216,4.22942 c 0.46058,8.04408 1.11998,9.33991 4.33616,8.52121 11.96313,-3.04532 15.13698,-1.44373 15.13698,7.63845 0,6.41258 -2.78483,13.02316 -6.61701,15.70732 -2.86016,2.00334 -6.17346,2.18436 -6.16568,0.33684 z"
     style="fill:#ffffff"
     sodipodi:nodetypes="cssssscssscssssc" /></svg>