<?xml version="1.0" encoding="UTF-8" standalone="no"?>
<!-- Created with Inkscape (http://www.inkscape.org/) -->

<svg
   xmlns:dc="http://purl.org/dc/elements/1.1/"
   xmlns:cc="http://creativecommons.org/ns#"
   xmlns:rdf="http://www.w3.org/1999/02/22-rdf-syntax-ns#"
   xmlns:svg="http://www.w3.org/2000/svg"
   xmlns="http://www.w3.org/2000/svg"
   xmlns:sodipodi="http://sodipodi.sourceforge.net/DTD/sodipodi-0.dtd"
   xmlns:inkscape="http://www.inkscape.org/namespaces/inkscape"
   width="123.59045mm"
   height="79.468575mm"
   preserveAspectRatio="xMinYMin meet"
   viewBox="0 0 437.91893 281.58156"
   id="svg2"
   version="1.1"
   inkscape:version="0.91 r13725"
   sodipodi:docname="cloud.svg">
  <defs
     id="defs4" />
  <sodipodi:namedview
     id="base"
     pagecolor="#ffffff"
     bordercolor="#666666"
     borderopacity="1.0"
     inkscape:pageopacity="0.0"
     inkscape:pageshadow="2"
     inkscape:zoom="0.7"
     inkscape:cx="-163.19973"
     inkscape:cy="94.692599"
     inkscape:document-units="px"
     inkscape:current-layer="g3414"
     showgrid="false"
     fit-margin-top="0"
     fit-margin-left="0"
     fit-margin-right="0"
     fit-margin-bottom="0"
     inkscape:window-width="1440"
     inkscape:window-height="796"
     inkscape:window-x="0"
     inkscape:window-y="0"
     inkscape:window-maximized="1" />
  <metadata
     id="metadata7">
    <rdf:RDF>
      <cc:Work
         rdf:about="">
        <dc:format>image/svg+xml</dc:format>
        <dc:type
           rdf:resource="http://purl.org/dc/dcmitype/StillImage" />
        <dc:title></dc:title>
      </cc:Work>
    </rdf:RDF>
  </metadata>
  <g
     inkscape:label="Layer 1"
     inkscape:groupmode="layer"
     id="layer1"
     transform="translate(-829.94928,-552.39414)">
    <g
       transform="matrix(1.25,0,0,-1.25,-360.71428,926.29077)"
       inkscape:label="wireframes"
       id="g3414">
      <path
         style="opacity:0.5;fill:#000000;fill-opacity:0.99607843"
         d="m 1014.8736,77.38396 c -28.02144,7.88843 -47.76289,28.2283 -55.83318,57.52564 -15.66292,56.8606 22.27945,107.07354 80.90788,107.07354 33.3332,0 71.7199,-28.09506 113.2953,-82.92033 16.0571,-21.17432 40.5293,-44.65036 54.3828,-52.16899 22.2162,-12.05727 27.3832,-12.33654 43.7919,-2.36692 20.8245,12.65262 28.6346,48.44291 14.5881,66.85143 -4.7958,6.28516 -19.3932,11.42757 -32.4385,11.42757 -22.0518,0 -24.0488,2.24508 -28.4154,31.94609 -7.5273,51.19943 -60.8865,79.02236 -97.7261,50.95708 -9.8937,-7.53731 -16.2213,-8.92758 -16.2213,-3.56413 0,4.83649 11.8571,14.18208 26.3491,20.76798 44.4924,20.21964 93.3907,-7.34996 102.0468,-57.53561 3.7411,-21.68962 7.9631,-26.69459 22.5185,-26.69459 26.0278,0 42.9683,-12.17473 52.7764,-37.92902 11.6565,-30.60814 0.3868,-60.91757 -28.7424,-77.30121 -38.3498,-21.5698 -61.6748,-9.64379 -127.4102,65.14447 -51.2235,58.27783 -62.8293,67.57458 -89.1524,71.41473 -25.7901,3.76239 -33.0412,1.39265 -49.064,-16.03463 -24.59583,-26.75177 -25.44196,-67.18723 -1.909,-91.23309 22.1018,-22.58373 72.4627,-23.28675 105.3599,-1.47078 13.0463,8.65176 23.7206,12.28329 23.7206,8.07007 0,-19.22351 -83.4047,-50.24151 -112.8248,-41.9593 z"
         id="path3505"
         inkscape:connector-curvature="0" />
      <path
         style="fill:#ffffff;fill-opacity:0.99607843"
         d="m 994.58986,93.237694 c -21.91711,12.934486 -42.05901,48.801846 -42.05901,74.895826 0,26.89436 20.48815,62.30776 43.55302,75.28053 48.51493,27.28713 85.23053,10.42411 157.15983,-72.18167 44.8342,-51.48884 54.2634,-58.67349 77.0008,-58.6708 29.8119,0.004 43.4269,11.52413 43.4269,36.74656 0,26.24982 -20.1204,44.01962 -46.5862,41.14367 -19.8984,-2.16229 -22.8165,0.016 -23.274,17.37377 -0.9775,37.08271 -11.6319,56.92751 -36.6735,68.30771 -21.7091,9.86572 -28.2049,9.76118 -51.5079,-0.82889 -32.0092,-14.54663 -37.1918,-11.81503 -16.4044,8.64628 10.3381,10.17593 26.1607,15.16662 48.0846,15.16662 27.6847,0 35.9298,-3.96033 53.9736,-25.92508 11.7135,-14.25879 21.2973,-34.79943 21.2973,-45.64586 0,-16.68512 3.4215,-19.72078 22.2277,-19.72078 27.8013,0 58.0574,-31.15795 58.0574,-59.7879 0,-27.46657 -36.574,-67.22668 -61.8395,-67.22668 -30.8758,0 -55.9928,18.773794 -104.4407,78.06464 -50.6301,61.96153 -80.6854,78.9 -114.8963,64.75292 -42.48271,-17.56767 -53.14581,-65.69475 -22.04913,-99.51714 22.64473,-24.629676 62.57903,-25.871606 101.54253,-3.15791 18.6813,10.89025 27.0305,12.87288 25.0725,5.95381 -4.402,-15.55485 -64.2082,-46.14118 -89.5119,-45.77848 -12.1958,0.1748 -31.1649,5.623794 -42.15364,12.108854 z"
         id="path3501"
         inkscape:connector-curvature="0" />
      <path
         style="fill:#000000"
         d=""
         id="path3487"
         inkscape:connector-curvature="0" />
    </g>
  </g>
</svg>
